<svg xmlns="http://www.w3.org/2000/svg" xmlns:xlink="http://www.w3.org/1999/xlink" width="2000" zoomAndPan="magnify" viewBox="0 0 1500 1499.999933" height="2000" preserveAspectRatio="xMidYMid meet" version="1.0"><defs><g/><clipPath id="53ff1a6ffc"><path d="M 409.40625 274.609375 L 1090.40625 274.609375 L 1090.40625 997.609375 L 409.40625 997.609375 Z M 409.40625 274.609375 " clip-rule="nonzero"/></clipPath><clipPath id="20fd044743"><path d="M 392 457.550781 L 1108 457.550781 L 1108 716 L 392 716 Z M 392 457.550781 " clip-rule="nonzero"/></clipPath><clipPath id="7d8cd669a2"><path d="M 402 471 L 1099 471 L 1099 729.800781 L 402 729.800781 Z M 402 471 " clip-rule="nonzero"/></clipPath><clipPath id="1792a62a44"><rect x="0" width="896" y="0" height="186"/></clipPath></defs><g clip-path="url(#53ff1a6ffc)"><path fill="#ff914d" d="M 1090.367188 997.878906 L 892.046875 997.878906 L 941.808594 890.976562 C 941.953125 890.542969 941.953125 889.964844 941.808594 889.53125 L 751.734375 448.480469 L 751.734375 274.609375 Z M 607.949219 997.878906 L 558.1875 890.976562 C 558.042969 890.542969 558.042969 889.964844 558.1875 889.53125 L 748.261719 448.480469 L 748.261719 274.609375 L 409.628906 997.878906 Z M 610.117188 994.550781 L 743.054688 469.457031 L 561.660156 890.398438 Z M 756.941406 469.3125 L 889.878906 994.40625 L 938.335938 890.253906 Z M 756.941406 469.3125 " fill-opacity="1" fill-rule="nonzero"/></g><g clip-path="url(#20fd044743)"><path fill="#000000" d="M 964.421875 457.71875 C 1195.023438 457.71875 1078.21875 715.085938 1078.21875 715.085938 L 812.40625 715.085938 C 812.40625 715.085938 774.332031 457.71875 964.421875 457.71875 Z M 687.589844 715.085938 L 421.632812 715.085938 C 421.632812 715.085938 304.972656 457.71875 535.429688 457.71875 C 725.664062 457.71875 687.589844 715.085938 687.589844 715.085938 Z M 687.589844 715.085938 " fill-opacity="1" fill-rule="nonzero"/></g><g clip-path="url(#7d8cd669a2)"><path fill="#f4eae4" d="M 803.53125 729.257812 L 1078.078125 729.257812 C 1078.078125 729.257812 1173.265625 471.03125 950.109375 471.03125 C 766.316406 471.175781 803.53125 729.257812 803.53125 729.257812 Z M 697.179688 729.257812 L 422.632812 729.257812 C 422.632812 729.257812 327.445312 471.03125 550.601562 471.03125 C 734.394531 471.175781 697.179688 729.257812 697.179688 729.257812 Z M 697.179688 729.257812 " fill-opacity="1" fill-rule="nonzero"/></g><path fill="#ff914d" d="M 933.789062 533.582031 C 983.890625 533.582031 1024.542969 574.234375 1024.542969 624.335938 C 1024.542969 674.433594 983.890625 715.085938 933.789062 715.085938 C 883.691406 715.085938 843.039062 674.433594 843.039062 624.335938 C 843.039062 574.234375 883.691406 533.582031 933.789062 533.582031 Z M 566.921875 533.582031 C 617.019531 533.582031 657.671875 574.234375 657.671875 624.335938 C 657.671875 674.433594 617.019531 715.085938 566.921875 715.085938 C 516.820312 715.085938 476.167969 674.433594 476.167969 624.335938 C 476.167969 574.234375 516.820312 533.582031 566.921875 533.582031 Z M 566.921875 533.582031 " fill-opacity="1" fill-rule="nonzero"/><path fill="#000000" d="M 933.789062 566.363281 C 965.855469 566.363281 991.761719 592.273438 991.761719 624.335938 C 991.761719 656.398438 965.855469 682.308594 933.789062 682.308594 C 901.726562 682.308594 875.820312 656.398438 875.820312 624.335938 C 875.820312 592.273438 901.726562 566.363281 933.789062 566.363281 Z M 566.921875 566.363281 C 598.984375 566.363281 624.894531 592.273438 624.894531 624.335938 C 624.894531 656.398438 598.984375 682.308594 566.921875 682.308594 C 534.855469 682.308594 508.949219 656.398438 508.949219 624.335938 C 508.949219 592.273438 534.855469 566.363281 566.921875 566.363281 Z M 566.921875 566.363281 " fill-opacity="1" fill-rule="nonzero"/><path fill="#f4eae4" d="M 534.285156 562.640625 C 551.460938 562.640625 565.488281 576.667969 565.488281 593.847656 C 565.488281 611.023438 551.460938 625.050781 534.285156 625.050781 C 517.105469 625.050781 503.078125 611.023438 503.078125 593.847656 C 503.078125 576.667969 517.105469 562.640625 534.285156 562.640625 Z M 604.851562 651.246094 C 612.582031 649.957031 619.882812 655.253906 621.171875 662.984375 C 622.460938 670.710938 617.164062 678.011719 609.433594 679.300781 C 601.703125 680.589844 594.402344 675.292969 593.117188 667.5625 C 591.96875 659.835938 597.125 652.535156 604.851562 651.246094 Z M 903.300781 562.640625 C 886.125 562.640625 872.097656 576.8125 872.097656 593.847656 C 872.097656 610.878906 886.269531 625.050781 903.300781 625.050781 C 920.480469 625.050781 934.507812 610.878906 934.507812 593.847656 C 933.789062 576.8125 920.335938 562.640625 903.300781 562.640625 Z M 976.160156 651.101562 C 984.035156 651.101562 990.332031 657.402344 990.332031 665.273438 C 990.332031 673.144531 984.035156 679.445312 976.160156 679.445312 C 968.289062 679.445312 961.988281 673.144531 961.988281 665.273438 C 961.988281 657.402344 968.289062 651.101562 976.160156 651.101562 Z M 976.160156 651.101562 " fill-opacity="1" fill-rule="nonzero"/><g transform="matrix(1, 0, 0, 1, 305, 1041)"><g clip-path="url(#1792a62a44)"><g fill="#ffffff" fill-opacity="1"><g transform="translate(11.391448, 150.33742)"><g><path d="M 6.125 0 L 6.125 -107.109375 L 27.546875 -107.109375 L 27.546875 0 Z M 87.21875 0 L 87.21875 -21.421875 C 87.21875 -24.378906 86.171875 -26.90625 84.078125 -29 C 81.984375 -31.09375 79.457031 -32.140625 76.5 -32.140625 L 38.25 -32.140625 L 38.25 -53.5625 L 71.921875 -53.5625 C 77.222656 -53.5625 81.097656 -54.785156 83.546875 -57.234375 C 85.992188 -59.679688 87.21875 -63.554688 87.21875 -68.859375 L 87.21875 -107.109375 L 108.640625 -107.109375 L 108.640625 -68.859375 C 108.640625 -62.429688 107.695312 -57.203125 105.8125 -53.171875 C 103.925781 -49.140625 100.582031 -45.695312 95.78125 -42.84375 C 100.582031 -39.988281 103.925781 -36.75 105.8125 -33.125 C 107.695312 -29.507812 108.640625 -25.609375 108.640625 -21.421875 L 108.640625 0 Z M 87.21875 0 "/></g></g></g><g fill="#ffffff" fill-opacity="1"><g transform="translate(126.143879, 150.33742)"><g><path d="M 6.125 -85.6875 L 6.125 -107.109375 L 104.046875 -107.109375 L 104.046875 -85.6875 Z M 76.5 0 C 70.6875 0 65.359375 -1.453125 60.515625 -4.359375 C 55.671875 -7.265625 51.796875 -11.164062 48.890625 -16.0625 C 45.984375 -20.957031 44.53125 -26.316406 44.53125 -32.140625 L 44.53125 -74.984375 L 65.796875 -74.984375 L 65.796875 -32.140625 C 65.796875 -29.179688 66.863281 -26.65625 69 -24.5625 C 71.144531 -22.46875 73.644531 -21.421875 76.5 -21.421875 L 104.046875 -21.421875 L 104.046875 0 Z M 6.125 0 L 6.125 -21.421875 L 44.375 -21.421875 L 44.375 0 Z M 6.125 0 "/></g></g></g><g fill="#ffffff" fill-opacity="1"><g transform="translate(236.306237, 150.33742)"><g><path d="M 91.8125 -21.421875 L 91.8125 -74.984375 C 91.8125 -77.941406 90.765625 -80.460938 88.671875 -82.546875 C 86.578125 -84.640625 84.050781 -85.6875 81.09375 -85.6875 L 27.546875 -85.6875 L 27.546875 -107.109375 L 81.09375 -107.109375 C 87.007812 -107.109375 92.390625 -105.65625 97.234375 -102.75 C 102.085938 -99.84375 105.96875 -95.96875 108.875 -91.125 C 111.78125 -86.28125 113.234375 -80.898438 113.234375 -74.984375 L 113.234375 -21.421875 Z M 6.125 0 L 6.125 -85.6875 L 27.546875 -85.6875 L 27.546875 -21.421875 L 91.8125 -21.421875 L 91.8125 0 Z M 6.125 0 "/></g></g></g><g fill="#ffffff" fill-opacity="1"><g transform="translate(355.64874, 150.33742)"><g/></g></g><g fill="#ffffff" fill-opacity="1"><g transform="translate(416.850059, 150.33742)"><g><path d="M 91.8125 0 L 91.8125 -21.421875 C 91.8125 -24.378906 90.765625 -26.90625 88.671875 -29 C 86.578125 -31.09375 84.050781 -32.140625 81.09375 -32.140625 L 38.25 -32.140625 L 38.25 -53.5625 L 81.09375 -53.5625 C 84.050781 -53.5625 86.578125 -54.601562 88.671875 -56.6875 C 90.765625 -58.78125 91.8125 -61.304688 91.8125 -64.265625 L 91.8125 -74.984375 C 91.8125 -77.941406 90.765625 -80.460938 88.671875 -82.546875 C 86.578125 -84.640625 84.050781 -85.6875 81.09375 -85.6875 L 27.546875 -85.6875 L 27.546875 -107.109375 L 81.09375 -107.109375 C 87.007812 -107.109375 92.390625 -105.65625 97.234375 -102.75 C 102.085938 -99.84375 105.96875 -95.96875 108.875 -91.125 C 111.78125 -86.28125 113.234375 -80.898438 113.234375 -74.984375 L 113.234375 -64.265625 C 113.234375 -60.179688 112.492188 -56.300781 111.015625 -52.625 C 109.535156 -48.957031 107.519531 -45.695312 104.96875 -42.84375 C 107.519531 -39.988281 109.535156 -36.75 111.015625 -33.125 C 112.492188 -29.507812 113.234375 -25.609375 113.234375 -21.421875 L 113.234375 0 Z M 6.125 0 L 6.125 -85.6875 L 27.546875 -85.6875 L 27.546875 0 Z M 6.125 0 "/></g></g></g><g fill="#ffffff" fill-opacity="1"><g transform="translate(536.192587, 150.33742)"><g><path d="M 91.8125 -21.421875 L 91.8125 -74.984375 C 91.8125 -77.941406 90.765625 -80.460938 88.671875 -82.546875 C 86.578125 -84.640625 84.050781 -85.6875 81.09375 -85.6875 L 27.546875 -85.6875 L 27.546875 -107.109375 L 81.09375 -107.109375 C 87.007812 -107.109375 92.390625 -105.65625 97.234375 -102.75 C 102.085938 -99.84375 105.96875 -95.96875 108.875 -91.125 C 111.78125 -86.28125 113.234375 -80.898438 113.234375 -74.984375 L 113.234375 -21.421875 Z M 38.25 0 C 32.332031 0 26.953125 -1.453125 22.109375 -4.359375 C 17.265625 -7.265625 13.390625 -11.140625 10.484375 -15.984375 C 7.578125 -20.835938 6.125 -26.222656 6.125 -32.140625 L 6.125 -85.6875 L 27.546875 -85.6875 L 27.546875 -32.140625 C 27.546875 -29.179688 28.585938 -26.65625 30.671875 -24.5625 C 32.765625 -22.46875 35.289062 -21.421875 38.25 -21.421875 L 91.8125 -21.421875 L 91.8125 0 Z M 38.25 0 "/></g></g></g><g fill="#ffffff" fill-opacity="1"><g transform="translate(655.535141, 150.33742)"><g><path d="M 59.671875 0 C 53.859375 0 48.910156 -1.453125 44.828125 -4.359375 C 40.753906 -7.265625 37.363281 -11.140625 34.65625 -15.984375 C 31.957031 -20.835938 29.632812 -26.296875 27.6875 -32.359375 C 25.75 -38.429688 24.019531 -44.628906 22.5 -50.953125 C 21.78125 -53.910156 20.910156 -57.351562 19.890625 -61.28125 C 18.867188 -65.207031 17.671875 -69.03125 16.296875 -72.75 C 14.921875 -76.476562 13.390625 -79.566406 11.703125 -82.015625 C 10.023438 -84.460938 8.164062 -85.6875 6.125 -85.6875 L 6.125 -107.109375 C 11.832031 -107.109375 16.648438 -105.78125 20.578125 -103.125 C 24.503906 -100.476562 27.816406 -96.804688 30.515625 -92.109375 C 33.222656 -87.421875 35.570312 -81.988281 37.5625 -75.8125 C 39.550781 -69.644531 41.414062 -63.09375 43.15625 -56.15625 C 43.96875 -53.09375 44.910156 -49.492188 45.984375 -45.359375 C 47.054688 -41.234375 48.253906 -37.234375 49.578125 -33.359375 C 50.898438 -29.484375 52.398438 -26.269531 54.078125 -23.71875 C 55.765625 -21.164062 57.628906 -19.890625 59.671875 -19.890625 C 61.710938 -19.890625 63.597656 -21.210938 65.328125 -23.859375 C 67.066406 -26.515625 68.597656 -29.832031 69.921875 -33.8125 C 71.253906 -37.789062 72.429688 -41.796875 73.453125 -45.828125 C 74.472656 -49.859375 75.335938 -53.300781 76.046875 -56.15625 C 77.679688 -62.789062 79.46875 -69.140625 81.40625 -75.203125 C 83.34375 -81.273438 85.660156 -86.707031 88.359375 -91.5 C 91.066406 -96.289062 94.4375 -100.085938 98.46875 -102.890625 C 102.5 -105.703125 107.421875 -107.109375 113.234375 -107.109375 L 113.234375 -85.6875 C 111.085938 -85.6875 109.171875 -84.460938 107.484375 -82.015625 C 105.804688 -79.566406 104.300781 -76.453125 102.96875 -72.671875 C 101.644531 -68.898438 100.472656 -65.078125 99.453125 -61.203125 C 98.441406 -57.328125 97.578125 -53.910156 96.859375 -50.953125 C 95.023438 -43.910156 93.113281 -37.300781 91.125 -31.125 C 89.132812 -24.957031 86.785156 -19.523438 84.078125 -14.828125 C 81.378906 -10.140625 78.066406 -6.492188 74.140625 -3.890625 C 70.210938 -1.296875 65.390625 0 59.671875 0 Z M 59.671875 0 "/></g></g></g><g fill="#ffffff" fill-opacity="1"><g transform="translate(774.877645, 150.33742)"><g><path d="M 27.546875 -85.6875 L 27.546875 -107.109375 L 113.234375 -107.109375 L 113.234375 -85.6875 Z M 38.25 0 C 32.4375 0 27.082031 -1.453125 22.1875 -4.359375 C 17.289062 -7.265625 13.390625 -11.164062 10.484375 -16.0625 C 7.578125 -20.957031 6.125 -26.316406 6.125 -32.140625 L 6.125 -85.6875 L 27.546875 -85.6875 L 27.546875 -32.140625 C 27.546875 -29.179688 28.613281 -26.65625 30.75 -24.5625 C 32.894531 -22.46875 35.394531 -21.421875 38.25 -21.421875 L 113.234375 -21.421875 L 113.234375 0 Z M 38.09375 -42.84375 L 38.09375 -64.265625 L 102.515625 -64.265625 L 102.515625 -42.84375 Z M 38.09375 -42.84375 "/></g></g></g><g fill="#000000" fill-opacity="1"><g transform="translate(-4.252437, 157.967497)"><g><path d="M 6.125 0 L 6.125 -107.109375 L 27.546875 -107.109375 L 27.546875 0 Z M 87.21875 0 L 87.21875 -21.421875 C 87.21875 -24.378906 86.171875 -26.90625 84.078125 -29 C 81.984375 -31.09375 79.457031 -32.140625 76.5 -32.140625 L 38.25 -32.140625 L 38.25 -53.5625 L 71.921875 -53.5625 C 77.222656 -53.5625 81.097656 -54.785156 83.546875 -57.234375 C 85.992188 -59.679688 87.21875 -63.554688 87.21875 -68.859375 L 87.21875 -107.109375 L 108.640625 -107.109375 L 108.640625 -68.859375 C 108.640625 -62.429688 107.695312 -57.203125 105.8125 -53.171875 C 103.925781 -49.140625 100.582031 -45.695312 95.78125 -42.84375 C 100.582031 -39.988281 103.925781 -36.75 105.8125 -33.125 C 107.695312 -29.507812 108.640625 -25.609375 108.640625 -21.421875 L 108.640625 0 Z M 87.21875 0 "/></g></g></g><g fill="#000000" fill-opacity="1"><g transform="translate(110.499994, 157.967497)"><g><path d="M 6.125 -85.6875 L 6.125 -107.109375 L 104.046875 -107.109375 L 104.046875 -85.6875 Z M 76.5 0 C 70.6875 0 65.359375 -1.453125 60.515625 -4.359375 C 55.671875 -7.265625 51.796875 -11.164062 48.890625 -16.0625 C 45.984375 -20.957031 44.53125 -26.316406 44.53125 -32.140625 L 44.53125 -74.984375 L 65.796875 -74.984375 L 65.796875 -32.140625 C 65.796875 -29.179688 66.863281 -26.65625 69 -24.5625 C 71.144531 -22.46875 73.644531 -21.421875 76.5 -21.421875 L 104.046875 -21.421875 L 104.046875 0 Z M 6.125 0 L 6.125 -21.421875 L 44.375 -21.421875 L 44.375 0 Z M 6.125 0 "/></g></g></g><g fill="#000000" fill-opacity="1"><g transform="translate(220.662352, 157.967497)"><g><path d="M 91.8125 -21.421875 L 91.8125 -74.984375 C 91.8125 -77.941406 90.765625 -80.460938 88.671875 -82.546875 C 86.578125 -84.640625 84.050781 -85.6875 81.09375 -85.6875 L 27.546875 -85.6875 L 27.546875 -107.109375 L 81.09375 -107.109375 C 87.007812 -107.109375 92.390625 -105.65625 97.234375 -102.75 C 102.085938 -99.84375 105.96875 -95.96875 108.875 -91.125 C 111.78125 -86.28125 113.234375 -80.898438 113.234375 -74.984375 L 113.234375 -21.421875 Z M 6.125 0 L 6.125 -85.6875 L 27.546875 -85.6875 L 27.546875 -21.421875 L 91.8125 -21.421875 L 91.8125 0 Z M 6.125 0 "/></g></g></g><g fill="#000000" fill-opacity="1"><g transform="translate(340.004855, 157.967497)"><g/></g></g><g fill="#000000" fill-opacity="1"><g transform="translate(401.206174, 157.967497)"><g><path d="M 91.8125 0 L 91.8125 -21.421875 C 91.8125 -24.378906 90.765625 -26.90625 88.671875 -29 C 86.578125 -31.09375 84.050781 -32.140625 81.09375 -32.140625 L 38.25 -32.140625 L 38.25 -53.5625 L 81.09375 -53.5625 C 84.050781 -53.5625 86.578125 -54.601562 88.671875 -56.6875 C 90.765625 -58.78125 91.8125 -61.304688 91.8125 -64.265625 L 91.8125 -74.984375 C 91.8125 -77.941406 90.765625 -80.460938 88.671875 -82.546875 C 86.578125 -84.640625 84.050781 -85.6875 81.09375 -85.6875 L 27.546875 -85.6875 L 27.546875 -107.109375 L 81.09375 -107.109375 C 87.007812 -107.109375 92.390625 -105.65625 97.234375 -102.75 C 102.085938 -99.84375 105.96875 -95.96875 108.875 -91.125 C 111.78125 -86.28125 113.234375 -80.898438 113.234375 -74.984375 L 113.234375 -64.265625 C 113.234375 -60.179688 112.492188 -56.300781 111.015625 -52.625 C 109.535156 -48.957031 107.519531 -45.695312 104.96875 -42.84375 C 107.519531 -39.988281 109.535156 -36.75 111.015625 -33.125 C 112.492188 -29.507812 113.234375 -25.609375 113.234375 -21.421875 L 113.234375 0 Z M 6.125 0 L 6.125 -85.6875 L 27.546875 -85.6875 L 27.546875 0 Z M 6.125 0 "/></g></g></g><g fill="#000000" fill-opacity="1"><g transform="translate(520.548702, 157.967497)"><g><path d="M 91.8125 -21.421875 L 91.8125 -74.984375 C 91.8125 -77.941406 90.765625 -80.460938 88.671875 -82.546875 C 86.578125 -84.640625 84.050781 -85.6875 81.09375 -85.6875 L 27.546875 -85.6875 L 27.546875 -107.109375 L 81.09375 -107.109375 C 87.007812 -107.109375 92.390625 -105.65625 97.234375 -102.75 C 102.085938 -99.84375 105.96875 -95.96875 108.875 -91.125 C 111.78125 -86.28125 113.234375 -80.898438 113.234375 -74.984375 L 113.234375 -21.421875 Z M 38.25 0 C 32.332031 0 26.953125 -1.453125 22.109375 -4.359375 C 17.265625 -7.265625 13.390625 -11.140625 10.484375 -15.984375 C 7.578125 -20.835938 6.125 -26.222656 6.125 -32.140625 L 6.125 -85.6875 L 27.546875 -85.6875 L 27.546875 -32.140625 C 27.546875 -29.179688 28.585938 -26.65625 30.671875 -24.5625 C 32.765625 -22.46875 35.289062 -21.421875 38.25 -21.421875 L 91.8125 -21.421875 L 91.8125 0 Z M 38.25 0 "/></g></g></g><g fill="#000000" fill-opacity="1"><g transform="translate(639.891256, 157.967497)"><g><path d="M 59.671875 0 C 53.859375 0 48.910156 -1.453125 44.828125 -4.359375 C 40.753906 -7.265625 37.363281 -11.140625 34.65625 -15.984375 C 31.957031 -20.835938 29.632812 -26.296875 27.6875 -32.359375 C 25.75 -38.429688 24.019531 -44.628906 22.5 -50.953125 C 21.78125 -53.910156 20.910156 -57.351562 19.890625 -61.28125 C 18.867188 -65.207031 17.671875 -69.03125 16.296875 -72.75 C 14.921875 -76.476562 13.390625 -79.566406 11.703125 -82.015625 C 10.023438 -84.460938 8.164062 -85.6875 6.125 -85.6875 L 6.125 -107.109375 C 11.832031 -107.109375 16.648438 -105.78125 20.578125 -103.125 C 24.503906 -100.476562 27.816406 -96.804688 30.515625 -92.109375 C 33.222656 -87.421875 35.570312 -81.988281 37.5625 -75.8125 C 39.550781 -69.644531 41.414062 -63.09375 43.15625 -56.15625 C 43.96875 -53.09375 44.910156 -49.492188 45.984375 -45.359375 C 47.054688 -41.234375 48.253906 -37.234375 49.578125 -33.359375 C 50.898438 -29.484375 52.398438 -26.269531 54.078125 -23.71875 C 55.765625 -21.164062 57.628906 -19.890625 59.671875 -19.890625 C 61.710938 -19.890625 63.597656 -21.210938 65.328125 -23.859375 C 67.066406 -26.515625 68.597656 -29.832031 69.921875 -33.8125 C 71.253906 -37.789062 72.429688 -41.796875 73.453125 -45.828125 C 74.472656 -49.859375 75.335938 -53.300781 76.046875 -56.15625 C 77.679688 -62.789062 79.46875 -69.140625 81.40625 -75.203125 C 83.34375 -81.273438 85.660156 -86.707031 88.359375 -91.5 C 91.066406 -96.289062 94.4375 -100.085938 98.46875 -102.890625 C 102.5 -105.703125 107.421875 -107.109375 113.234375 -107.109375 L 113.234375 -85.6875 C 111.085938 -85.6875 109.171875 -84.460938 107.484375 -82.015625 C 105.804688 -79.566406 104.300781 -76.453125 102.96875 -72.671875 C 101.644531 -68.898438 100.472656 -65.078125 99.453125 -61.203125 C 98.441406 -57.328125 97.578125 -53.910156 96.859375 -50.953125 C 95.023438 -43.910156 93.113281 -37.300781 91.125 -31.125 C 89.132812 -24.957031 86.785156 -19.523438 84.078125 -14.828125 C 81.378906 -10.140625 78.066406 -6.492188 74.140625 -3.890625 C 70.210938 -1.296875 65.390625 0 59.671875 0 Z M 59.671875 0 "/></g></g></g><g fill="#000000" fill-opacity="1"><g transform="translate(759.23376, 157.967497)"><g><path d="M 27.546875 -85.6875 L 27.546875 -107.109375 L 113.234375 -107.109375 L 113.234375 -85.6875 Z M 38.25 0 C 32.4375 0 27.082031 -1.453125 22.1875 -4.359375 C 17.289062 -7.265625 13.390625 -11.164062 10.484375 -16.0625 C 7.578125 -20.957031 6.125 -26.316406 6.125 -32.140625 L 6.125 -85.6875 L 27.546875 -85.6875 L 27.546875 -32.140625 C 27.546875 -29.179688 28.613281 -26.65625 30.75 -24.5625 C 32.894531 -22.46875 35.394531 -21.421875 38.25 -21.421875 L 113.234375 -21.421875 L 113.234375 0 Z M 38.09375 -42.84375 L 38.09375 -64.265625 L 102.515625 -64.265625 L 102.515625 -42.84375 Z M 38.09375 -42.84375 "/></g></g></g><g fill="#ffffff" fill-opacity="1"><g transform="translate(894.226696, 150.33742)"><g/></g></g><g fill="#000000" fill-opacity="1"><g transform="translate(878.58281, 157.967497)"><g/></g></g><g fill="#ff914d" fill-opacity="1"><g transform="translate(3.569506, 154.152458)"><g><path d="M 6.125 0 L 6.125 -107.109375 L 27.546875 -107.109375 L 27.546875 0 Z M 87.21875 0 L 87.21875 -21.421875 C 87.21875 -24.378906 86.171875 -26.90625 84.078125 -29 C 81.984375 -31.09375 79.457031 -32.140625 76.5 -32.140625 L 38.25 -32.140625 L 38.25 -53.5625 L 71.921875 -53.5625 C 77.222656 -53.5625 81.097656 -54.785156 83.546875 -57.234375 C 85.992188 -59.679688 87.21875 -63.554688 87.21875 -68.859375 L 87.21875 -107.109375 L 108.640625 -107.109375 L 108.640625 -68.859375 C 108.640625 -62.429688 107.695312 -57.203125 105.8125 -53.171875 C 103.925781 -49.140625 100.582031 -45.695312 95.78125 -42.84375 C 100.582031 -39.988281 103.925781 -36.75 105.8125 -33.125 C 107.695312 -29.507812 108.640625 -25.609375 108.640625 -21.421875 L 108.640625 0 Z M 87.21875 0 "/></g></g></g><g fill="#ff914d" fill-opacity="1"><g transform="translate(118.321936, 154.152458)"><g><path d="M 6.125 -85.6875 L 6.125 -107.109375 L 104.046875 -107.109375 L 104.046875 -85.6875 Z M 76.5 0 C 70.6875 0 65.359375 -1.453125 60.515625 -4.359375 C 55.671875 -7.265625 51.796875 -11.164062 48.890625 -16.0625 C 45.984375 -20.957031 44.53125 -26.316406 44.53125 -32.140625 L 44.53125 -74.984375 L 65.796875 -74.984375 L 65.796875 -32.140625 C 65.796875 -29.179688 66.863281 -26.65625 69 -24.5625 C 71.144531 -22.46875 73.644531 -21.421875 76.5 -21.421875 L 104.046875 -21.421875 L 104.046875 0 Z M 6.125 0 L 6.125 -21.421875 L 44.375 -21.421875 L 44.375 0 Z M 6.125 0 "/></g></g></g><g fill="#ff914d" fill-opacity="1"><g transform="translate(228.484294, 154.152458)"><g><path d="M 91.8125 -21.421875 L 91.8125 -74.984375 C 91.8125 -77.941406 90.765625 -80.460938 88.671875 -82.546875 C 86.578125 -84.640625 84.050781 -85.6875 81.09375 -85.6875 L 27.546875 -85.6875 L 27.546875 -107.109375 L 81.09375 -107.109375 C 87.007812 -107.109375 92.390625 -105.65625 97.234375 -102.75 C 102.085938 -99.84375 105.96875 -95.96875 108.875 -91.125 C 111.78125 -86.28125 113.234375 -80.898438 113.234375 -74.984375 L 113.234375 -21.421875 Z M 6.125 0 L 6.125 -85.6875 L 27.546875 -85.6875 L 27.546875 -21.421875 L 91.8125 -21.421875 L 91.8125 0 Z M 6.125 0 "/></g></g></g><g fill="#ff914d" fill-opacity="1"><g transform="translate(347.826798, 154.152458)"><g/></g></g><g fill="#ff914d" fill-opacity="1"><g transform="translate(409.028116, 154.152458)"><g><path d="M 91.8125 0 L 91.8125 -21.421875 C 91.8125 -24.378906 90.765625 -26.90625 88.671875 -29 C 86.578125 -31.09375 84.050781 -32.140625 81.09375 -32.140625 L 38.25 -32.140625 L 38.25 -53.5625 L 81.09375 -53.5625 C 84.050781 -53.5625 86.578125 -54.601562 88.671875 -56.6875 C 90.765625 -58.78125 91.8125 -61.304688 91.8125 -64.265625 L 91.8125 -74.984375 C 91.8125 -77.941406 90.765625 -80.460938 88.671875 -82.546875 C 86.578125 -84.640625 84.050781 -85.6875 81.09375 -85.6875 L 27.546875 -85.6875 L 27.546875 -107.109375 L 81.09375 -107.109375 C 87.007812 -107.109375 92.390625 -105.65625 97.234375 -102.75 C 102.085938 -99.84375 105.96875 -95.96875 108.875 -91.125 C 111.78125 -86.28125 113.234375 -80.898438 113.234375 -74.984375 L 113.234375 -64.265625 C 113.234375 -60.179688 112.492188 -56.300781 111.015625 -52.625 C 109.535156 -48.957031 107.519531 -45.695312 104.96875 -42.84375 C 107.519531 -39.988281 109.535156 -36.75 111.015625 -33.125 C 112.492188 -29.507812 113.234375 -25.609375 113.234375 -21.421875 L 113.234375 0 Z M 6.125 0 L 6.125 -85.6875 L 27.546875 -85.6875 L 27.546875 0 Z M 6.125 0 "/></g></g></g><g fill="#ff914d" fill-opacity="1"><g transform="translate(528.370644, 154.152458)"><g><path d="M 91.8125 -21.421875 L 91.8125 -74.984375 C 91.8125 -77.941406 90.765625 -80.460938 88.671875 -82.546875 C 86.578125 -84.640625 84.050781 -85.6875 81.09375 -85.6875 L 27.546875 -85.6875 L 27.546875 -107.109375 L 81.09375 -107.109375 C 87.007812 -107.109375 92.390625 -105.65625 97.234375 -102.75 C 102.085938 -99.84375 105.96875 -95.96875 108.875 -91.125 C 111.78125 -86.28125 113.234375 -80.898438 113.234375 -74.984375 L 113.234375 -21.421875 Z M 38.25 0 C 32.332031 0 26.953125 -1.453125 22.109375 -4.359375 C 17.265625 -7.265625 13.390625 -11.140625 10.484375 -15.984375 C 7.578125 -20.835938 6.125 -26.222656 6.125 -32.140625 L 6.125 -85.6875 L 27.546875 -85.6875 L 27.546875 -32.140625 C 27.546875 -29.179688 28.585938 -26.65625 30.671875 -24.5625 C 32.765625 -22.46875 35.289062 -21.421875 38.25 -21.421875 L 91.8125 -21.421875 L 91.8125 0 Z M 38.25 0 "/></g></g></g><g fill="#ff914d" fill-opacity="1"><g transform="translate(647.713199, 154.152458)"><g><path d="M 59.671875 0 C 53.859375 0 48.910156 -1.453125 44.828125 -4.359375 C 40.753906 -7.265625 37.363281 -11.140625 34.65625 -15.984375 C 31.957031 -20.835938 29.632812 -26.296875 27.6875 -32.359375 C 25.75 -38.429688 24.019531 -44.628906 22.5 -50.953125 C 21.78125 -53.910156 20.910156 -57.351562 19.890625 -61.28125 C 18.867188 -65.207031 17.671875 -69.03125 16.296875 -72.75 C 14.921875 -76.476562 13.390625 -79.566406 11.703125 -82.015625 C 10.023438 -84.460938 8.164062 -85.6875 6.125 -85.6875 L 6.125 -107.109375 C 11.832031 -107.109375 16.648438 -105.78125 20.578125 -103.125 C 24.503906 -100.476562 27.816406 -96.804688 30.515625 -92.109375 C 33.222656 -87.421875 35.570312 -81.988281 37.5625 -75.8125 C 39.550781 -69.644531 41.414062 -63.09375 43.15625 -56.15625 C 43.96875 -53.09375 44.910156 -49.492188 45.984375 -45.359375 C 47.054688 -41.234375 48.253906 -37.234375 49.578125 -33.359375 C 50.898438 -29.484375 52.398438 -26.269531 54.078125 -23.71875 C 55.765625 -21.164062 57.628906 -19.890625 59.671875 -19.890625 C 61.710938 -19.890625 63.597656 -21.210938 65.328125 -23.859375 C 67.066406 -26.515625 68.597656 -29.832031 69.921875 -33.8125 C 71.253906 -37.789062 72.429688 -41.796875 73.453125 -45.828125 C 74.472656 -49.859375 75.335938 -53.300781 76.046875 -56.15625 C 77.679688 -62.789062 79.46875 -69.140625 81.40625 -75.203125 C 83.34375 -81.273438 85.660156 -86.707031 88.359375 -91.5 C 91.066406 -96.289062 94.4375 -100.085938 98.46875 -102.890625 C 102.5 -105.703125 107.421875 -107.109375 113.234375 -107.109375 L 113.234375 -85.6875 C 111.085938 -85.6875 109.171875 -84.460938 107.484375 -82.015625 C 105.804688 -79.566406 104.300781 -76.453125 102.96875 -72.671875 C 101.644531 -68.898438 100.472656 -65.078125 99.453125 -61.203125 C 98.441406 -57.328125 97.578125 -53.910156 96.859375 -50.953125 C 95.023438 -43.910156 93.113281 -37.300781 91.125 -31.125 C 89.132812 -24.957031 86.785156 -19.523438 84.078125 -14.828125 C 81.378906 -10.140625 78.066406 -6.492188 74.140625 -3.890625 C 70.210938 -1.296875 65.390625 0 59.671875 0 Z M 59.671875 0 "/></g></g></g><g fill="#ff914d" fill-opacity="1"><g transform="translate(767.055702, 154.152458)"><g><path d="M 27.546875 -85.6875 L 27.546875 -107.109375 L 113.234375 -107.109375 L 113.234375 -85.6875 Z M 38.25 0 C 32.4375 0 27.082031 -1.453125 22.1875 -4.359375 C 17.289062 -7.265625 13.390625 -11.164062 10.484375 -16.0625 C 7.578125 -20.957031 6.125 -26.316406 6.125 -32.140625 L 6.125 -85.6875 L 27.546875 -85.6875 L 27.546875 -32.140625 C 27.546875 -29.179688 28.613281 -26.65625 30.75 -24.5625 C 32.894531 -22.46875 35.394531 -21.421875 38.25 -21.421875 L 113.234375 -21.421875 L 113.234375 0 Z M 38.09375 -42.84375 L 38.09375 -64.265625 L 102.515625 -64.265625 L 102.515625 -42.84375 Z M 38.09375 -42.84375 "/></g></g></g><g fill="#ff914d" fill-opacity="1"><g transform="translate(886.404753, 154.152458)"><g/></g></g></g></g></svg>